# xmcd
#
# Track frame offsets: 
#        150
#        14870
#        28373
#        42300
#        61488
#        86210
#        92720
#        105293
#        123095
#        136043
#        149893
#        171160
#        183323
#        200010
#        215833
#        235295
#        250990
#        263893
#        277940
#        294678
#        311518
#
# Disc length: 4317 seconds
#
# Revision: 0
# Processed by: cddbd v1.5.2PL0 Copyright (c) Steve Scherf et al.
# Submitted via: ExactAudioCopy v0.95b3
#
DISCID=4910db15
DTITLE=Beatles - Appel Studio Sessions (Jan.27-Jan.29 1969) [CD 2)
DYEAR=1900
DGENRE=Acid
TTITLE0=One After 909 (Jan.28)
TTITLE1=Old Brown Shoe (Jan.28)
TTITLE2=Old Brown Shoe (Jan.28)
TTITLE3=Old Brown Shoe (Jan.28)
TTITLE4=I Want You (She's So Heavy) (Jan.28)
TTITLE5=Something (Jan.28)
TTITLE6=Get Back (Jan.28)
TTITLE7=Teddy Boy (Jan.28)
TTITLE8=All Things Must Pass (Jan.29)
TTITLE9=All Things Must Pass (Jan.29)
TTITLE10=I Want You (She's So Heavy) (Jan.29)
TTITLE11=I Want You (She's So Heavy) (Jan.29)
TTITLE12=Dig A Pony (Jan.29)
TTITLE13=1
TTITLE14=2
TTITLE15=23
TTITLE16=456
TTITLE17=gj
TTITLE18=56
TTITLE19=345345
TTITLE20=llllllllllllll
EXTD=
EXTT0=
EXTT1=
EXTT2=
EXTT3=
EXTT4=
EXTT5=
EXTT6=
EXTT7=
EXTT8=
EXTT9=
EXTT10=
EXTT11=
EXTT12=
EXTT13=
EXTT14=
EXTT15=
EXTT16=
EXTT17=
EXTT18=
EXTT19=
EXTT20=
PLAYORDER=
